<svg xmlns="http://www.w3.org/2000/svg" xmlns:xlink="http://www.w3.org/1999/xlink" viewBox="0 0 4.9 6.84"><defs><style>.cls-1{fill:url(#linear-gradient);}</style><linearGradient id="linear-gradient" y1="3.42" x2="4.9" y2="3.42" gradientUnits="userSpaceOnUse"><stop offset="0.02" stop-color="#c760a4"/><stop offset="0.04" stop-color="#bd5c9f"/><stop offset="0.15" stop-color="#934a8b"/><stop offset="0.26" stop-color="#6f3b7a"/><stop offset="0.37" stop-color="#512f6c"/><stop offset="0.49" stop-color="#3b2562"/><stop offset="0.62" stop-color="#2b1e5a"/><stop offset="0.76" stop-color="#211a55"/><stop offset="0.96" stop-color="#1e1954"/></linearGradient></defs><title>Asset 13</title><g id="Layer_2" data-name="Layer 2"><g id="Layer_1-2" data-name="Layer 1"><path class="cls-1" d="M0,0A6.91,6.91,0,0,1,1.86,1.08,5.79,5.79,0,0,1,3.24,2.74a19.69,19.69,0,0,1,.9,2c.28.66.54,1.34.76,2l-.38.12c-.19-.68-.41-1.36-.66-2a19.5,19.5,0,0,0-.8-2A5.63,5.63,0,0,0,1.79,1.16,6.85,6.85,0,0,0,0,0Z"/></g></g></svg>