<svg xmlns="http://www.w3.org/2000/svg" xmlns:xlink="http://www.w3.org/1999/xlink" viewBox="0 0 6.85 3.62"><defs><style>.cls-1{fill:url(#linear-gradient);}</style><linearGradient id="linear-gradient" x1="-0.88" y1="-16.96" x2="2.02" y2="-16.96" gradientTransform="translate(19.73 -2.75) rotate(-105.74)" gradientUnits="userSpaceOnUse"><stop offset="0.02" stop-color="#c760a4"/><stop offset="0.04" stop-color="#bd5c9f"/><stop offset="0.15" stop-color="#934a8b"/><stop offset="0.26" stop-color="#6f3b7a"/><stop offset="0.37" stop-color="#512f6c"/><stop offset="0.49" stop-color="#3b2562"/><stop offset="0.62" stop-color="#2b1e5a"/><stop offset="0.76" stop-color="#211a55"/><stop offset="0.96" stop-color="#1e1954"/></linearGradient></defs><title>Asset 16</title><g id="Layer_2" data-name="Layer 2"><g id="Layer_1-2" data-name="Layer 1"><path class="cls-1" d="M0,3.27A4,4,0,0,1,.17,2.13a3.19,3.19,0,0,1,.5-1A2.68,2.68,0,0,1,1.54.36,3,3,0,0,1,2.61,0,3.93,3.93,0,0,1,3.7.08a4.46,4.46,0,0,1,.53.13l.51.12,1,.17a4.94,4.94,0,0,0,1.06,0h0A8.73,8.73,0,0,1,4.72.45L4.19.36A4.3,4.3,0,0,0,3.67.27a3.72,3.72,0,0,0-1,0,2.74,2.74,0,0,0-.92.38A2.18,2.18,0,0,0,1,1.35,3.06,3.06,0,0,0,.68,3.23h0A.34.34,0,0,1,0,3.31.38.38,0,0,1,0,3.27Z"/></g></g></svg>