<svg xmlns="http://www.w3.org/2000/svg" xmlns:xlink="http://www.w3.org/1999/xlink" viewBox="0 0 3.19 6.97"><defs><style>.cls-1{fill:url(#linear-gradient);}</style><linearGradient id="linear-gradient" x1="97.6" y1="-39.25" x2="100.5" y2="-39.25" gradientTransform="matrix(-0.62, -0.28, 0.41, -0.91, 78.79, -5.16)" gradientUnits="userSpaceOnUse"><stop offset="0.02" stop-color="#c760a4"/><stop offset="0.04" stop-color="#bd5c9f"/><stop offset="0.15" stop-color="#934a8b"/><stop offset="0.26" stop-color="#6f3b7a"/><stop offset="0.37" stop-color="#512f6c"/><stop offset="0.49" stop-color="#3b2562"/><stop offset="0.62" stop-color="#2b1e5a"/><stop offset="0.76" stop-color="#211a55"/><stop offset="0.96" stop-color="#1e1954"/></linearGradient></defs><title>Asset 15</title><g id="Layer_2" data-name="Layer 2"><g id="Layer_1-2" data-name="Layer 1"><path class="cls-1" d="M.68,6.92a2.45,2.45,0,0,1-.46-.73A2.75,2.75,0,0,1,0,5.26,3.39,3.39,0,0,1,.13,4.18a4.47,4.47,0,0,1,.43-1,5.28,5.28,0,0,1,.64-.84c.11-.13.24-.25.36-.36l.35-.35L2.58.85A6.81,6.81,0,0,0,3.18,0h0a0,0,0,0,1,0,0A11.87,11.87,0,0,1,2,1.68l-.34.38c-.12.12-.23.24-.33.37a5.17,5.17,0,0,0-.57.83,4,4,0,0,0-.33.94,2.57,2.57,0,0,0,0,.9A2,2,0,0,0,1,6.35H1a.35.35,0,0,1,0,.44C1,7,.8,7,.7,6.94Z"/></g></g></svg>